<svg xmlns="http://www.w3.org/2000/svg" xmlns:xlink="http://www.w3.org/1999/xlink" width="500" zoomAndPan="magnify" viewBox="0 0 375 374.999991" height="500" preserveAspectRatio="xMidYMid meet" version="1.0"><defs><clipPath id="id1"><path d="M 49.367188 261 L 71 261 L 71 283 L 49.367188 283 Z M 49.367188 261 " clip-rule="nonzero"/></clipPath><clipPath id="id2"><path d="M 304 85 L 325.367188 85 L 325.367188 107 L 304 107 Z M 304 85 " clip-rule="nonzero"/></clipPath><clipPath id="id3"><path d="M 49.367188 93 L 71 93 L 71 115 L 49.367188 115 Z M 49.367188 93 " clip-rule="nonzero"/></clipPath><clipPath id="id4"><path d="M 224 309 L 246 309 L 246 329.992188 L 224 329.992188 Z M 224 309 " clip-rule="nonzero"/></clipPath><clipPath id="id5"><path d="M 129 37.5 L 134 37.5 L 134 59 L 129 59 Z M 129 37.5 " clip-rule="nonzero"/></clipPath></defs><path fill="rgb(100%, 100%, 100%)" d="M 305.425781 157.371094 L 187.367188 285.226562 L 69.308594 157.371094 L 117.167969 98.238281 L 257.5625 98.238281 Z M 305.425781 157.371094 " fill-opacity="1" fill-rule="nonzero"/><path fill="rgb(20.388794%, 19.219971%, 22.749329%)" d="M 187.367188 288.421875 C 186.488281 288.421875 185.609375 288.023438 185.054688 287.382812 L 66.996094 159.527344 C 65.878906 158.328125 65.878906 156.570312 66.835938 155.371094 L 114.695312 96.238281 C 115.335938 95.519531 116.210938 95.039062 117.167969 95.039062 L 257.5625 95.039062 C 258.519531 95.039062 259.398438 95.441406 260.035156 96.238281 L 307.898438 155.371094 C 308.933594 156.570312 308.855469 158.410156 307.738281 159.527344 L 189.679688 287.382812 C 189.121094 288.023438 188.242188 288.421875 187.367188 288.421875 Z M 73.535156 157.210938 L 187.367188 280.511719 L 301.195312 157.210938 L 256.046875 101.433594 L 118.683594 101.433594 Z M 73.535156 157.210938 " fill-opacity="1" fill-rule="nonzero"/><path fill="rgb(20.388794%, 19.219971%, 22.749329%)" d="M 305.425781 160.566406 L 69.308594 160.566406 C 67.554688 160.566406 66.117188 159.128906 66.117188 157.371094 C 66.117188 155.613281 67.554688 154.175781 69.308594 154.175781 L 305.425781 154.175781 C 307.179688 154.175781 308.613281 155.613281 308.613281 157.371094 C 308.613281 159.128906 307.179688 160.566406 305.425781 160.566406 Z M 305.425781 160.566406 " fill-opacity="1" fill-rule="nonzero"/><path fill="rgb(20.388794%, 19.219971%, 22.749329%)" d="M 187.367188 288.421875 C 186.96875 288.421875 186.648438 288.34375 186.25 288.183594 C 184.574219 287.542969 183.777344 285.707031 184.414062 284.109375 L 231.636719 157.929688 L 184.894531 100.234375 C 183.777344 98.875 184.015625 96.878906 185.371094 95.757812 C 186.726562 94.640625 188.722656 94.878906 189.839844 96.238281 L 237.699219 155.371094 C 238.417969 156.25 238.578125 157.449219 238.179688 158.488281 L 190.316406 286.347656 C 189.839844 287.625 188.640625 288.421875 187.367188 288.421875 Z M 187.367188 288.421875 " fill-opacity="1" fill-rule="nonzero"/><path fill="rgb(20.388794%, 19.219971%, 22.749329%)" d="M 187.367188 288.421875 C 186.089844 288.421875 184.894531 287.625 184.414062 286.347656 L 136.554688 158.488281 C 136.15625 157.449219 136.3125 156.25 137.03125 155.371094 L 184.894531 96.238281 C 186.011719 94.878906 188.003906 94.640625 189.359375 95.757812 C 190.714844 96.878906 190.957031 98.875 189.839844 100.234375 L 143.09375 157.929688 L 190.316406 284.109375 C 190.957031 285.785156 190.078125 287.625 188.484375 288.183594 C 188.085938 288.34375 187.765625 288.421875 187.367188 288.421875 Z M 187.367188 288.421875 " fill-opacity="1" fill-rule="nonzero"/><g clip-path="url(#id1)"><path fill="rgb(20.388794%, 19.219971%, 22.749329%)" d="M 59.734375 282.03125 C 53.992188 282.03125 49.367188 277.394531 49.367188 271.640625 C 49.367188 265.890625 53.992188 261.253906 59.734375 261.253906 C 65.480469 261.253906 70.105469 265.890625 70.105469 271.640625 C 70.105469 277.394531 65.480469 282.03125 59.734375 282.03125 Z M 59.734375 266.046875 C 56.625 266.046875 54.152344 268.527344 54.152344 271.640625 C 54.152344 274.757812 56.625 277.234375 59.734375 277.234375 C 62.847656 277.234375 65.320312 274.757812 65.320312 271.640625 C 65.320312 268.527344 62.847656 266.046875 59.734375 266.046875 Z M 59.734375 266.046875 " fill-opacity="1" fill-rule="nonzero"/></g><g clip-path="url(#id2)"><path fill="rgb(20.388794%, 19.219971%, 22.749329%)" d="M 314.996094 106.226562 C 309.253906 106.226562 304.625 101.59375 304.625 95.839844 C 304.625 90.085938 309.253906 85.449219 314.996094 85.449219 C 320.738281 85.449219 325.367188 90.085938 325.367188 95.839844 C 325.367188 101.59375 320.738281 106.226562 314.996094 106.226562 Z M 314.996094 90.246094 C 311.886719 90.246094 309.414062 92.722656 309.414062 95.839844 C 309.414062 98.957031 311.886719 101.433594 314.996094 101.433594 C 318.105469 101.433594 320.582031 98.957031 320.582031 95.839844 C 320.582031 92.722656 318.105469 90.246094 314.996094 90.246094 Z M 314.996094 90.246094 " fill-opacity="1" fill-rule="nonzero"/></g><g clip-path="url(#id3)"><path fill="rgb(20.388794%, 19.219971%, 22.749329%)" d="M 59.734375 114.21875 C 53.992188 114.21875 49.367188 109.582031 49.367188 103.832031 C 49.367188 98.078125 53.992188 93.441406 59.734375 93.441406 C 65.480469 93.441406 70.105469 98.078125 70.105469 103.832031 C 70.105469 109.582031 65.480469 114.21875 59.734375 114.21875 Z M 59.734375 98.238281 C 56.625 98.238281 54.152344 100.714844 54.152344 103.832031 C 54.152344 106.945312 56.625 109.425781 59.734375 109.425781 C 62.847656 109.425781 65.320312 106.945312 65.320312 103.832031 C 65.320312 100.714844 62.847656 98.238281 59.734375 98.238281 Z M 59.734375 98.238281 " fill-opacity="1" fill-rule="nonzero"/></g><g clip-path="url(#id4)"><path fill="rgb(20.388794%, 19.219971%, 22.749329%)" d="M 235.226562 329.976562 C 229.484375 329.976562 224.859375 325.34375 224.859375 319.589844 C 224.859375 313.835938 229.484375 309.199219 235.226562 309.199219 C 240.972656 309.199219 245.597656 313.835938 245.597656 319.589844 C 245.597656 325.34375 240.972656 329.976562 235.226562 329.976562 Z M 235.226562 313.996094 C 232.117188 313.996094 229.644531 316.472656 229.644531 319.589844 C 229.644531 322.707031 232.117188 325.183594 235.226562 325.183594 C 238.339844 325.183594 240.8125 322.707031 240.8125 319.589844 C 240.8125 316.472656 238.339844 313.996094 235.226562 313.996094 Z M 235.226562 313.996094 " fill-opacity="1" fill-rule="nonzero"/></g><g clip-path="url(#id5)"><path fill="rgb(20.388794%, 19.219971%, 22.749329%)" d="M 131.527344 58.28125 C 130.171875 58.28125 129.136719 57.242188 129.136719 55.882812 L 129.136719 39.902344 C 129.136719 38.542969 130.171875 37.503906 131.527344 37.503906 C 132.882812 37.503906 133.921875 38.542969 133.921875 39.902344 L 133.921875 55.882812 C 133.921875 57.242188 132.882812 58.28125 131.527344 58.28125 Z M 131.527344 58.28125 " fill-opacity="1" fill-rule="nonzero"/></g><path fill="rgb(20.388794%, 19.219971%, 22.749329%)" d="M 139.503906 50.289062 L 123.550781 50.289062 C 122.195312 50.289062 121.15625 49.25 121.15625 47.894531 C 121.15625 46.535156 122.195312 45.496094 123.550781 45.496094 L 139.503906 45.496094 C 140.859375 45.496094 141.898438 46.535156 141.898438 47.894531 C 141.898438 49.25 140.859375 50.289062 139.503906 50.289062 Z M 139.503906 50.289062 " fill-opacity="1" fill-rule="nonzero"/><path fill="rgb(20.388794%, 19.219971%, 22.749329%)" d="M 283.089844 82.253906 C 281.734375 82.253906 280.695312 81.214844 280.695312 79.855469 L 280.695312 63.875 C 280.695312 62.515625 281.734375 61.476562 283.089844 61.476562 C 284.445312 61.476562 285.480469 62.515625 285.480469 63.875 L 285.480469 79.855469 C 285.480469 81.214844 284.445312 82.253906 283.089844 82.253906 Z M 283.089844 82.253906 " fill-opacity="1" fill-rule="nonzero"/><path fill="rgb(20.388794%, 19.219971%, 22.749329%)" d="M 291.066406 74.261719 L 275.113281 74.261719 C 273.753906 74.261719 272.71875 73.222656 272.71875 71.867188 C 272.71875 70.507812 273.753906 69.46875 275.113281 69.46875 L 291.066406 69.46875 C 292.421875 69.46875 293.457031 70.507812 293.457031 71.867188 C 293.457031 73.222656 292.421875 74.261719 291.066406 74.261719 Z M 291.066406 74.261719 " fill-opacity="1" fill-rule="nonzero"/><path fill="rgb(20.388794%, 19.219971%, 22.749329%)" d="M 99.621094 298.011719 C 98.265625 298.011719 97.226562 296.972656 97.226562 295.617188 L 97.226562 279.632812 C 97.226562 278.273438 98.265625 277.234375 99.621094 277.234375 C 100.976562 277.234375 102.011719 278.273438 102.011719 279.632812 L 102.011719 295.617188 C 102.011719 296.972656 100.976562 298.011719 99.621094 298.011719 Z M 99.621094 298.011719 " fill-opacity="1" fill-rule="nonzero"/><path fill="rgb(20.388794%, 19.219971%, 22.749329%)" d="M 107.597656 290.023438 L 91.644531 290.023438 C 90.289062 290.023438 89.25 288.984375 89.25 287.625 C 89.25 286.265625 90.289062 285.226562 91.644531 285.226562 L 107.597656 285.226562 C 108.953125 285.226562 109.992188 286.265625 109.992188 287.625 C 109.992188 288.984375 108.953125 290.023438 107.597656 290.023438 Z M 107.597656 290.023438 " fill-opacity="1" fill-rule="nonzero"/><path fill="rgb(20.388794%, 19.219971%, 22.749329%)" d="M 307.019531 266.046875 C 305.664062 266.046875 304.625 265.007812 304.625 263.652344 L 304.625 247.667969 C 304.625 246.3125 305.664062 245.273438 307.019531 245.273438 C 308.375 245.273438 309.414062 246.3125 309.414062 247.667969 L 309.414062 263.652344 C 309.414062 265.007812 308.375 266.046875 307.019531 266.046875 Z M 307.019531 266.046875 " fill-opacity="1" fill-rule="nonzero"/><path fill="rgb(20.388794%, 19.219971%, 22.749329%)" d="M 314.996094 258.058594 L 299.042969 258.058594 C 297.6875 258.058594 296.648438 257.019531 296.648438 255.660156 C 296.648438 254.300781 297.6875 253.261719 299.042969 253.261719 L 314.996094 253.261719 C 316.351562 253.261719 317.390625 254.300781 317.390625 255.660156 C 317.390625 257.019531 316.351562 258.058594 314.996094 258.058594 Z M 314.996094 258.058594 " fill-opacity="1" fill-rule="nonzero"/></svg>