<svg xmlns="http://www.w3.org/2000/svg" xmlns:xlink="http://www.w3.org/1999/xlink" width="500" zoomAndPan="magnify" viewBox="0 0 375 374.999991" height="500" preserveAspectRatio="xMidYMid meet" version="1.0"><defs><filter x="0%" y="0%" width="100%" xlink:type="simple" xlink:actuate="onLoad" height="100%" id="id1" xlink:show="other"><feColorMatrix values="0 0 0 0 1 0 0 0 0 1 0 0 0 0 1 0 0 0 1 0" color-interpolation-filters="sRGB"/></filter><clipPath id="id2"><path d="M 94 48 L 319.992188 48 L 319.992188 226 L 94 226 Z M 94 48 " clip-rule="nonzero"/></clipPath><clipPath id="id3"><path d="M 77.742188 34.933594 L 100 34.933594 L 100 337.183594 L 77.742188 337.183594 Z M 77.742188 34.933594 " clip-rule="nonzero"/></clipPath><clipPath id="id4"><path d="M 132 204 L 283 204 L 283 337.742188 L 132 337.742188 Z M 132 204 " clip-rule="nonzero"/></clipPath><clipPath id="id5"><path d="M 132 208 L 283 208 L 283 337.742188 L 132 337.742188 Z M 132 208 " clip-rule="nonzero"/></clipPath><mask id="id6"><g filter="url(#id1)"><rect x="-37.5" width="450" fill="rgb(0%, 0%, 0%)" y="-37.499999" height="449.999989" fill-opacity="0.298"/></g></mask><clipPath id="id7"><path d="M 1 0.558594 L 150.480469 0.558594 L 150.480469 129.742188 L 1 129.742188 Z M 1 0.558594 " clip-rule="nonzero"/></clipPath><clipPath id="id8"><rect x="0" width="151" y="0" height="130"/></clipPath><clipPath id="id9"><path d="M 132 221 L 257 221 L 257 337.742188 L 132 337.742188 Z M 132 221 " clip-rule="nonzero"/></clipPath><clipPath id="id10"><path d="M 130 202.742188 L 284.246094 202.742188 L 284.246094 337.742188 L 130 337.742188 Z M 130 202.742188 " clip-rule="nonzero"/></clipPath></defs><path fill="rgb(100%, 100%, 100%)" d="M 97.003906 51.683594 L 317.03125 51.683594 L 317.03125 222.183594 L 97.003906 222.183594 Z M 97.003906 51.683594 " fill-opacity="1" fill-rule="nonzero"/><g clip-path="url(#id2)"><path fill="rgb(20.388794%, 19.219971%, 22.749329%)" d="M 317.03125 225.148438 L 97.003906 225.148438 C 95.375 225.148438 94.042969 223.8125 94.042969 222.183594 L 94.042969 51.683594 C 94.042969 50.054688 95.375 48.71875 97.003906 48.71875 L 317.03125 48.71875 C 318.660156 48.71875 319.992188 50.054688 319.992188 51.683594 L 319.992188 222.183594 C 319.992188 223.8125 318.660156 225.148438 317.03125 225.148438 Z M 99.96875 219.21875 L 314.066406 219.21875 L 314.066406 54.652344 L 99.96875 54.652344 Z M 99.96875 219.21875 " fill-opacity="1" fill-rule="nonzero"/></g><path fill="rgb(100%, 43.139648%, 39.99939%)" d="M 230.796875 96.753906 C 214.796875 96.753906 207.019531 110.246094 207.019531 110.246094 C 207.019531 110.246094 199.3125 96.753906 183.238281 96.753906 C 167.160156 96.753906 158.863281 110.394531 158.863281 123.441406 C 158.863281 148.496094 207.019531 177.113281 207.019531 177.113281 C 207.019531 177.113281 255.171875 148.496094 255.171875 123.441406 C 255.171875 110.394531 246.800781 96.753906 230.796875 96.753906 Z M 230.796875 96.753906 " fill-opacity="1" fill-rule="nonzero"/><path fill="rgb(20.388794%, 19.219971%, 22.749329%)" d="M 207.019531 179.261719 C 206.648438 179.261719 206.203125 179.1875 205.90625 178.964844 C 203.90625 177.777344 156.640625 149.386719 156.640625 123.367188 C 156.640625 109.359375 165.976562 94.457031 183.238281 94.457031 C 195.832031 94.457031 203.609375 102.09375 207.019531 106.320312 C 210.351562 102.09375 218.128906 94.457031 230.796875 94.457031 C 248.058594 94.457031 257.394531 109.359375 257.394531 123.367188 C 257.394531 149.386719 210.128906 177.777344 208.128906 178.964844 C 207.832031 179.1875 207.386719 179.261719 207.019531 179.261719 Z M 183.238281 98.980469 C 172.199219 98.980469 161.085938 107.355469 161.085938 123.441406 C 161.085938 144.867188 199.832031 169.996094 207.019531 174.515625 C 214.203125 170.070312 252.949219 144.867188 252.949219 123.441406 C 252.949219 111.285156 245.320312 98.980469 230.796875 98.980469 C 216.203125 98.980469 209.019531 111.210938 208.945312 111.359375 C 208.574219 112.027344 207.832031 112.472656 207.019531 112.472656 C 206.203125 112.472656 205.460938 112.027344 205.09375 111.359375 C 204.796875 110.839844 197.757812 98.980469 183.238281 98.980469 Z M 183.238281 98.980469 " fill-opacity="1" fill-rule="nonzero"/><path fill="rgb(100%, 100%, 100%)" d="M 97.003906 334.414062 L 80.707031 334.414062 L 80.707031 46.050781 C 80.707031 41.53125 84.335938 37.898438 88.855469 37.898438 C 93.375 37.898438 97.003906 41.53125 97.003906 46.050781 Z M 97.003906 334.414062 " fill-opacity="1" fill-rule="nonzero"/><g clip-path="url(#id3)"><path fill="rgb(20.388794%, 19.219971%, 22.749329%)" d="M 97.003906 337.378906 L 80.707031 337.378906 C 79.078125 337.378906 77.742188 336.042969 77.742188 334.414062 L 77.742188 46.050781 C 77.742188 39.898438 82.707031 34.933594 88.855469 34.933594 C 95.003906 34.933594 99.96875 39.898438 99.96875 46.050781 L 99.96875 334.414062 C 99.96875 336.042969 98.636719 337.378906 97.003906 337.378906 Z M 83.671875 331.449219 L 94.042969 331.449219 L 94.042969 46.050781 C 94.042969 43.160156 91.746094 40.863281 88.855469 40.863281 C 85.96875 40.863281 83.671875 43.160156 83.671875 46.050781 Z M 83.671875 331.449219 " fill-opacity="1" fill-rule="nonzero"/></g><g clip-path="url(#id4)"><path fill="rgb(100%, 100%, 100%)" d="M 282.734375 327.203125 L 282.191406 337.726562 L 243.890625 337.726562 L 244.570312 327.203125 Z M 273.941406 281.078125 C 273.941406 281.078125 274.917969 263.894531 260.46875 246.09375 C 263.777344 229.640625 259.339844 207.601562 255.121094 204.359375 C 247.160156 204.824219 230.53125 210.652344 221.296875 225.3125 C 211.945312 221.984375 198.75 221.105469 185.4375 224.425781 C 185.4375 224.425781 169.683594 207.875 151.210938 204.359375 C 142.246094 210.898438 145.054688 242.765625 144.960938 246.769531 C 138.714844 257.910156 115.078125 291.957031 153.925781 315.828125 C 148.765625 329.105469 146.710938 337.542969 146.710938 337.542969 L 242.484375 337.726562 C 242.484375 337.726562 244.257812 319.058594 246.160156 309.820312 C 248.058594 300.582031 249.828125 285.085938 253.894531 283.273438 C 257.960938 281.457031 261.140625 285.761719 261.140625 285.761719 C 261.140625 285.761719 265.738281 274.484375 269.324219 284.539062 C 268.292969 280.738281 273.941406 281.078125 273.941406 281.078125 Z M 273.941406 281.078125 " fill-opacity="1" fill-rule="nonzero"/></g><path fill="rgb(93.728638%, 69.018555%, 49.01886%)" d="M 248.644531 295.410156 C 251.632812 280.328125 257.742188 281.824219 261.140625 285.761719 C 261.683594 281.144531 266.574219 279.648438 269.425781 283.316406 C 280.425781 272.449219 282.191406 304.699219 282.191406 304.699219 L 282.191406 325.574219 C 282.191406 325.574219 279.730469 333.589844 262.839844 333.589844 C 248.101562 333.589844 243.890625 327.066406 243.890625 327.066406 C 243.890625 327.066406 245.65625 310.492188 248.644531 295.410156 Z M 185.914062 224.621094 C 182.652344 219.742188 161.667969 202.742188 151.480469 204.378906 C 139.9375 217.691406 145.503906 246.769531 145.503906 246.769531 C 145.503906 246.769531 135.96875 259.527344 134.835938 271.851562 C 135.203125 280.941406 159.910156 296.863281 188.15625 273.210938 C 214.996094 250.738281 193.382812 223.261719 193.382812 223.261719 C 193.382812 223.261719 189.71875 223.523438 185.914062 224.621094 Z M 252.816406 212.257812 L 243.890625 230.375 C 243.890625 230.375 251.867188 236.988281 253.96875 242.691406 C 256.070312 237.257812 256.628906 223.398438 252.816406 212.257812 Z M 252.816406 212.257812 " fill-opacity="1" fill-rule="nonzero"/><g clip-path="url(#id5)"><g mask="url(#id6)"><g transform="matrix(1, 0, 0, 1, 132, 208)"><g clip-path="url(#id8)"><g clip-path="url(#id7)"><path fill="rgb(93.728638%, 32.939148%, 32.939148%)" d="M 150.191406 129.726562 C 150.191406 129.726562 150.191406 129.726562 133.691406 129.726562 C 146.527344 128.5625 148.089844 93.933594 148.089844 93.933594 Z M 29.078125 22.375 C 29.078125 22.375 22.015625 7.699219 20.839844 4.257812 C 17.851562 11.503906 17.359375 29.621094 19.6875 34.691406 C 24.269531 29.109375 29.078125 22.375 29.078125 22.375 Z M 110.558594 129.726562 C 112.070312 120.257812 114.144531 107.226562 115.816406 96.722656 C 115.808594 96.726562 115.800781 96.730469 115.792969 96.734375 L 117.5 77.875 C 117.390625 78.007812 117.253906 78.191406 117.085938 78.433594 C 115.789062 80.304688 112.859375 85.695312 110.492188 98.507812 C 100.792969 101.394531 88.019531 103.382812 71.207031 103.496094 C 6.003906 103.050781 1.5625 74.449219 1.5625 74.449219 C 1.5625 74.449219 0.386719 78.304688 2.890625 84.605469 C 2.160156 83.988281 1.605469 83.5 1.300781 83.199219 C 3.21875 97.644531 22.015625 108.785156 22.015625 108.785156 L 14.710938 129.726562 C 14.710938 129.726562 22.378906 129.726562 30.710938 129.726562 C 35.78125 113.167969 41.910156 113.605469 41.910156 113.605469 L 41.910156 113.601562 C 54.671875 116.398438 66.929688 117.152344 71.207031 117.152344 C 75.480469 117.152344 87.738281 116.398438 100.5 113.601562 L 100.5 113.605469 C 100.5 113.605469 103.636719 113.382812 107.277344 119.3125 C 105.953125 127.75 105.527344 129.71875 105.527344 129.71875 Z M 88.949219 17.3125 L 96.464844 19.476562 C 96.464844 19.476562 99.273438 9.371094 111.542969 0.835938 C 102.984375 3.171875 93.75 9.355469 88.949219 17.3125 Z M 30.273438 0.835938 C 42.542969 9.371094 45.347656 19.476562 45.347656 19.476562 L 52.863281 17.3125 C 48.066406 9.355469 38.828125 3.171875 30.273438 0.835938 Z M 76.167969 80.441406 C 76.167969 80.441406 70.007812 81.855469 64.757812 80.285156 C 65.480469 86.324219 74.355469 86.867188 76.167969 80.441406 Z M 76.167969 80.441406 " fill-opacity="1" fill-rule="nonzero"/></g></g></g></g></g><g clip-path="url(#id9)"><path fill="rgb(100%, 100%, 100%)" d="M 146.449219 221.960938 C 146.449219 221.960938 145.070312 240.890625 151.535156 249.945312 C 144.691406 254.921875 132.953125 271.097656 133.285156 284.269531 C 130.703125 275.710938 134.410156 261.078125 144.640625 247.992188 C 143.601562 240.246094 144.644531 229.59375 146.449219 221.960938 Z M 246.425781 319.832031 C 250.089844 292.621094 256.355469 284.292969 256.355469 284.292969 C 246.046875 281.507812 245.472656 307.730469 246.425781 319.832031 Z M 140.636719 301.933594 C 140.636719 301.933594 153.246094 313.480469 160.988281 314.703125 C 157.867188 318.644531 151.535156 337.726562 151.535156 337.726562 L 145.914062 337.726562 L 153.246094 316.335938 C 153.246094 316.335938 140.925781 310.230469 140.636719 301.933594 Z M 140.636719 301.933594 " fill-opacity="1" fill-rule="nonzero"/></g><g clip-path="url(#id10)"><path fill="rgb(20.388794%, 19.219971%, 22.749329%)" d="M 284.230469 337.726562 C 282.5 337.726562 280.222656 337.726562 280.222656 337.726562 C 280.1875 331.109375 281.351562 296.910156 277.882812 285.386719 C 276.046875 279.285156 270.324219 282.199219 269.546875 287.277344 C 269.027344 284.730469 268.4375 281.988281 265.835938 282.257812 C 262.617188 282.59375 261.300781 288.28125 261.300781 288.28125 C 261.300781 288.28125 258.71875 284.136719 256.355469 284.292969 C 252.625 284.539062 250.164062 290.023438 248.375 301.699219 C 247.371094 308.261719 244.78125 337.726562 244.78125 337.726562 L 241.449219 337.726562 C 241.449219 337.726562 243.28125 317.417969 243.871094 313.019531 L 243.886719 312.890625 L 244.359375 309.464844 C 245.433594 301.925781 246.628906 295.085938 247.78125 290.761719 C 250.777344 279.503906 257.582031 278.316406 260.648438 283.722656 C 262.222656 277.925781 269.050781 276.960938 269.769531 282.0625 C 269.996094 280.996094 271.058594 279.714844 272.554688 279.179688 C 271.960938 270.484375 268.15625 259.996094 258.984375 247.449219 C 260.988281 243.234375 263.128906 223.417969 254.710938 206.007812 C 250.457031 206.007812 236.195312 209.492188 222.429688 224.460938 C 224.769531 225.273438 226.96875 226.261719 228.8125 227.476562 C 228.238281 227.5 215.667969 223.925781 203.097656 223.925781 C 190.523438 223.925781 177.953125 227.5 177.378906 227.476562 C 179.226562 226.261719 181.425781 225.273438 183.761719 224.460938 C 170 209.492188 155.738281 206.007812 151.480469 206.007812 C 143.066406 223.417969 145.203125 243.238281 147.207031 247.449219 C 113.992188 292.902344 151.148438 311.320312 156.4375 315.449219 C 153.449219 321.566406 147.949219 337.726562 147.949219 337.726562 L 144.261719 337.726562 C 144.261719 337.726562 147.828125 326.464844 152.175781 316.410156 C 119.019531 296.910156 129.75 264.976562 143.332031 247.992188 C 139.257812 223.945312 147.679688 203.289062 150.9375 202.742188 C 172.539062 206.875 183.574219 219.75 186.464844 223.617188 C 190.34375 222.53125 196.71875 220.941406 203.097656 220.941406 C 209.464844 220.941406 215.839844 222.527344 219.726562 223.617188 C 222.617188 219.75 233.652344 206.875 255.253906 202.742188 C 258.515625 203.289062 266.9375 223.945312 262.859375 247.992188 C 269.304688 256.050781 275.105469 267.476562 275.878906 279.34375 C 276.996094 279.835938 278.175781 280.804688 279.332031 282.460938 C 281.492188 285.546875 281.820312 289.53125 282.839844 297.550781 C 283.777344 304.957031 284.230469 333.351562 284.230469 337.726562 Z M 252.816406 212.257812 C 252.816406 212.257812 246.625 221.027344 242.070312 230.367188 C 245.125 232.367188 251.402344 238.886719 253.96875 242.691406 C 255.175781 240.519531 248.902344 231.300781 245.707031 229.511719 C 249.035156 225.980469 252.816406 212.257812 252.816406 212.257812 Z M 152.839844 212.257812 C 152.839844 212.257812 159.03125 221.027344 163.585938 230.367188 C 160.53125 232.367188 154.253906 238.886719 151.6875 242.691406 C 150.480469 240.519531 156.753906 231.300781 159.949219 229.511719 C 156.621094 225.980469 152.839844 212.257812 152.839844 212.257812 Z M 170.121094 256.167969 C 163.203125 257.800781 158.519531 264.703125 157.09375 270.425781 C 156.875 271.296875 157.34375 271.992188 158.3125 272.234375 C 159.882812 272.625 162.738281 271.828125 163.15625 270.140625 C 163.707031 267.941406 164.636719 265.949219 165.929688 264.210938 C 166.90625 262.902344 168.804688 260.640625 170.597656 260.191406 C 172.039062 259.832031 173.417969 262.1875 174.15625 263.457031 L 174.332031 263.753906 C 175.601562 265.894531 176.625 268.375 177.378906 271.128906 C 177.644531 272.09375 178.589844 272.476562 179.636719 272.476562 C 180.078125 272.476562 180.53125 272.410156 180.964844 272.289062 C 182.722656 271.808594 183.730469 270.664062 183.414062 269.503906 C 180.644531 259.382812 176.046875 254.769531 170.121094 256.167969 Z M 248.558594 269.503906 C 245.789062 259.382812 241.191406 254.769531 235.265625 256.167969 C 228.351562 257.800781 223.664062 264.703125 222.238281 270.425781 C 222.105469 270.957031 222.230469 271.4375 222.585938 271.78125 C 223.332031 272.503906 224.824219 272.40625 225.875 272.105469 C 227.179688 271.730469 228.089844 270.996094 228.300781 270.140625 C 228.851562 267.941406 229.785156 265.949219 231.074219 264.210938 C 232.050781 262.902344 233.949219 260.640625 235.742188 260.191406 C 237.183594 259.832031 238.5625 262.1875 239.300781 263.457031 L 239.476562 263.753906 C 240.746094 265.894531 241.769531 268.375 242.523438 271.128906 C 242.691406 271.742188 243.179688 272.183594 243.898438 272.371094 C 244.171875 272.445312 244.472656 272.476562 244.785156 272.476562 C 245.949219 272.476562 247.28125 272.003906 248.019531 271.257812 C 248.53125 270.738281 248.722656 270.113281 248.558594 269.503906 Z M 212.851562 272.554688 C 212.117188 272.945312 211.769531 274.203125 212.488281 275.550781 C 212.902344 276.335938 212.457031 277.144531 212.15625 277.554688 C 211.363281 278.632812 209.941406 279.289062 208.851562 279.085938 C 206.96875 278.734375 205.835938 276.519531 205.058594 274.632812 C 204.695312 273.75 203.933594 273.203125 203.070312 273.203125 C 202.207031 273.203125 201.445312 273.75 201.085938 274.632812 C 200.445312 276.179688 199.257812 279.066406 197.292969 279.433594 C 196.457031 279.589844 195.414062 279.1875 194.585938 278.386719 C 193.355469 277.148438 193.722656 275.53125 193.855469 275.09375 C 193.871094 275.058594 193.878906 275.027344 193.894531 274.980469 L 194.179688 274.21875 L 194.035156 274.21875 C 194.074219 273.417969 193.757812 272.738281 193.183594 272.503906 C 192.695312 272.304688 191.972656 272.457031 191.429688 273.484375 C 190.414062 275.390625 190.355469 277.65625 191.277344 279.546875 C 192.132812 281.304688 193.742188 282.511719 195.695312 282.859375 C 198.492188 283.355469 201.03125 282.171875 203.070312 279.4375 C 204.808594 281.765625 206.90625 282.96875 209.21875 282.96875 C 209.621094 282.96875 210.035156 282.933594 210.449219 282.859375 C 212.402344 282.511719 214.011719 281.304688 214.867188 279.546875 C 215.785156 277.65625 215.730469 275.390625 214.714844 273.484375 C 214.125 272.378906 213.34375 272.292969 212.851562 272.554688 Z M 212.851562 272.554688 " fill-opacity="1" fill-rule="nonzero"/></g><path fill="rgb(93.728638%, 32.939148%, 32.939148%)" d="M 265.167969 299.9375 C 264.152344 298.796875 260.089844 295.699219 257.480469 300.753906 C 254.867188 305.808594 261.996094 310.863281 265.167969 310.863281 C 268.34375 310.863281 275.46875 305.808594 272.859375 300.753906 C 270.246094 295.699219 266.183594 298.796875 265.167969 299.9375 Z M 267.660156 291.425781 C 267.660156 289.882812 266.777344 288.632812 265.691406 288.632812 C 264.601562 288.632812 263.71875 289.882812 263.71875 291.425781 C 263.71875 292.96875 264.601562 294.21875 265.691406 294.21875 C 266.777344 294.21875 267.660156 292.96875 267.660156 291.425781 Z M 273.769531 290.3125 C 272.667969 290.144531 271.5625 291.171875 271.304688 292.609375 C 271.042969 294.042969 271.730469 295.34375 272.832031 295.511719 C 273.9375 295.679688 275.042969 294.652344 275.300781 293.214844 C 275.558594 291.777344 274.875 290.480469 273.769531 290.3125 Z M 257.84375 295.652344 C 258.960938 295.328125 259.453125 293.902344 258.949219 292.46875 C 258.445312 291.035156 257.128906 290.132812 256.015625 290.457031 C 254.898438 290.78125 254.402344 292.207031 254.90625 293.640625 C 255.414062 295.074219 256.726562 295.976562 257.84375 295.652344 Z M 257.84375 295.652344 " fill-opacity="1" fill-rule="nonzero"/></svg>